<svg width="32" height="32" viewBox="0 0 32 32" fill="none" xmlns="http://www.w3.org/2000/svg">
<path d="M0.625 22.2356C0.625 23.2904 1.47125 24.1445 2.51437 24.1445H29.485C30.5288 24.1445 31.375 23.2904 31.375 22.2356V3.73633H0.625V22.2356Z" fill="#F9F6F4"/>
<path d="M29.485 0.631348H2.51437C1.47125 0.631348 0.625 1.48542 0.625 2.5396V3.73644H31.375V2.5396C31.375 1.48542 30.5288 0.631348 29.485 0.631348V0.631348Z" fill="#838EB1"/>
<path d="M24.2622 31.2815V29.6316C24.2622 28.5989 23.4333 27.7617 22.4108 27.7617H9.58959C8.56716 27.7617 7.73828 28.5989 7.73828 29.6316V31.2815H24.2622Z" fill="#CCD3DD"/>
<path d="M31.3748 19.6692H0.625V22.2358C0.625 23.2899 1.47106 24.1445 2.51475 24.1445H29.485C30.5287 24.1445 31.3748 23.2899 31.3748 22.2358V19.6692Z" fill="#CCD3DD"/>
<path d="M11.9434 24.1445V27.7619H20.0577V24.1445H11.9434Z" fill="#838EB1"/>
<path d="M0.625 3.73633H5.50994V15.7103H0.625V3.73633Z" fill="#CCD3DD"/>
<path d="M26.4902 9.40771H31.3752V15.0791H26.4902V9.40771Z" fill="#CCD3DD"/>
<path d="M26.4902 3.73633H31.3752V9.40774H26.4902V3.73633Z" fill="#CCD3DD"/>
<path d="M8.61328 8.66211V14.5254L13.3123 16.6011V10.6918L8.61328 8.66211Z" fill="#FFEC80"/>
<path d="M18.0115 8.66211V14.5254L13.3125 16.6011V10.6918L18.0115 8.66211Z" fill="#FFEC80"/>
<path d="M13.3123 6.58643L8.61328 8.66208L13.3123 10.6918L18.0113 8.66208L13.3123 6.58643Z" fill="#FFA76B"/>
<path d="M0.625 15.7102H5.50994V19.6691H0.625V15.7102Z" fill="#838EB1"/>
<path d="M29.485 0H2.51437C1.12794 0 0 1.13927 0 2.5395V22.2356C0 23.6362 1.12794 24.7757 2.51437 24.7757H2.51487H11.3178V27.1306H9.58937C8.22394 27.1306 7.113 28.2525 7.113 29.6317V31.2816C7.113 31.6302 7.39281 31.9128 7.738 31.9128H13.2229C13.5681 31.9128 13.8479 31.6302 13.8479 31.2816C13.8479 30.9329 13.5681 30.6503 13.2229 30.6503H8.363V29.6317C8.363 28.9487 8.91312 28.3931 9.58937 28.3931H22.4106C23.0868 28.3931 23.637 28.9487 23.637 29.6317V30.6503H18.7225C18.3773 30.6503 18.0975 30.9329 18.0975 31.2816C18.0975 31.6302 18.3773 31.9128 18.7225 31.9128H24.262C24.6072 31.9128 24.887 31.6302 24.887 31.2816V29.6317C24.887 28.2525 23.7761 27.1306 22.4106 27.1306H20.6822V24.7757H29.485C30.8542 24.7839 32 23.6117 32 22.2356V2.5395C32 1.13927 30.8718 0 29.485 0V0ZM6.13513 19.0379V4.36758H25.8651V15.079C25.8651 15.4277 26.1449 15.7103 26.4901 15.7103H30.75V19.0379H6.13513ZM4.88513 15.079H1.25013V4.36758H4.88513V15.079ZM1.25013 16.3415H4.88513V19.0379H1.25013V16.3415ZM30.75 4.36758V8.77644H27.1151V4.36758H30.75ZM30.75 14.4478H27.1151V10.0389H30.75V14.4478ZM2.51437 1.26249H29.485C30.1826 1.26249 30.75 1.83534 30.75 2.5395V3.10503H1.25V2.5395C1.25 1.83534 1.81719 1.26249 2.51437 1.26249V1.26249ZM19.4322 27.1306H12.5678V24.7757H19.4322V27.1306ZM2.51487 23.5132C1.8175 23.5132 1.25013 22.9402 1.25013 22.2358V20.3004H30.7499V22.2358C30.7499 22.9309 30.1732 23.5132 29.485 23.5132H2.51487Z" fill="black"/>
<path d="M2.77734 8.21659H3.35759C3.70278 8.21659 3.98259 7.93398 3.98259 7.58535C3.98259 7.23671 3.70278 6.9541 3.35759 6.9541H2.77734C2.43216 6.9541 2.15234 7.23671 2.15234 7.58535C2.15234 7.93398 2.43216 8.21659 2.77734 8.21659Z" fill="black"/>
<path d="M3.35759 11.238H2.77734C2.43216 11.238 2.15234 11.5206 2.15234 11.8693C2.15234 12.2179 2.43216 12.5005 2.77734 12.5005H3.35759C3.70278 12.5005 3.98259 12.2179 3.98259 11.8693C3.98259 11.5206 3.70278 11.238 3.35759 11.238Z" fill="black"/>
<path d="M28.7012 12.8745H29.2275C29.5727 12.8745 29.8525 12.5919 29.8525 12.2433C29.8525 11.8947 29.5727 11.6121 29.2275 11.6121H28.7012C28.356 11.6121 28.0762 11.8947 28.0762 12.2433C28.0762 12.5919 28.356 12.8745 28.7012 12.8745Z" fill="black"/>
<path d="M28.7012 7.20316H29.2275C29.5727 7.20316 29.8525 6.92055 29.8525 6.57192C29.8525 6.22328 29.5727 5.94067 29.2275 5.94067H28.7012C28.356 5.94067 28.0762 6.22328 28.0762 6.57192C28.0762 6.92055 28.356 7.20316 28.7012 7.20316Z" fill="black"/>
<path d="M18.6363 8.66196C18.6363 8.41818 18.4508 8.16719 18.2617 8.08362L13.5627 6.00796C13.4031 5.93745 13.2215 5.93745 13.0618 6.00796L8.36284 8.08362C8.13959 8.18222 7.98828 8.41565 7.98828 8.66196V14.5253C7.98828 14.7762 8.13534 15.0032 8.36284 15.1037L13.0618 17.1793C13.2194 17.249 13.4052 17.249 13.5627 17.1793L18.2617 15.1037C18.4893 15.0032 18.6363 14.7762 18.6363 14.6861C18.6363 14.6861 18.6363 8.77944 18.6363 8.66196ZM13.3123 7.27531L16.4368 8.65553L13.3123 10.0051L10.1877 8.65553L13.3123 7.27531ZM9.23828 9.61849L12.6873 11.1082V15.6359L9.23828 14.1124V9.61849ZM17.3863 14.1124L13.9373 15.6359V11.1082L17.3863 9.61843V14.1124Z" fill="black"/>
<path d="M23.704 14.8144L23.1941 15.3295V8.82513L23.704 9.34017C23.9482 9.58673 24.3439 9.58667 24.5879 9.34023C24.832 9.09373 24.832 8.69402 24.5879 8.44752L23.0111 6.85496C22.7711 6.6125 22.3671 6.6125 22.1271 6.85483L20.5502 8.44746C20.3062 8.69396 20.3062 9.09367 20.5502 9.34023C20.7907 9.58307 21.1936 9.5832 21.4342 9.34023L21.9441 8.8252V15.3295L21.4342 14.8144C21.1901 14.5679 20.7944 14.5679 20.5503 14.8144C20.3062 15.0609 20.3062 15.4606 20.5503 15.7071L22.1271 17.2998C22.3671 17.5422 22.7711 17.5422 23.0112 17.2998L24.588 15.7071C24.832 15.4606 24.832 15.0609 24.588 14.8144C24.3439 14.5679 23.9482 14.5679 23.704 14.8144V14.8144Z" fill="black"/>
<path d="M16.577 31.04C16.3613 30.5171 15.6013 30.5383 15.4121 31.0691C15.2195 31.6093 15.8156 32.1111 16.3078 31.8304C16.58 31.6752 16.695 31.3312 16.577 31.04Z" fill="black"/>
</svg>
